<svg xmlns="http://www.w3.org/2000/svg" xmlns:xlink="http://www.w3.org/1999/xlink" width="500" zoomAndPan="magnify" viewBox="0 0 375 374.999991" height="500" preserveAspectRatio="xMidYMid meet" version="1.0"><rect x="-37.5" width="450" fill="#ffffff" y="-37.499999" height="449.999989" fill-opacity="1"/><rect x="-37.5" width="450" fill="#181227" y="-37.499999" height="449.999989" fill-opacity="1"/><path fill="#c9fa75" d="M 93.546875 136.042969 C 157.96875 -43.078125 359.328125 90.359375 259.507812 228.277344 C 260.890625 231.953125 261.578125 235.976562 261.578125 240.058594 C 261.578125 259.078125 246.234375 274.421875 227.214844 274.421875 C 208.191406 274.421875 192.847656 259.078125 192.847656 240.058594 C 192.847656 221.035156 208.191406 205.691406 227.214844 205.691406 C 229.167969 205.691406 231.0625 205.75 232.902344 206.09375 C 289.390625 112.769531 184.058594 -7.507812 107.226562 129.550781 C 102.570312 131.445312 97.972656 133.574219 93.546875 136.042969 Z M 93.546875 136.042969 " fill-opacity="1" fill-rule="nonzero"/><path fill="#c9fa75" d="M 294.046875 152.996094 C 416.964844 298.328125 200.664062 406.078125 131.128906 250.6875 C 127.28125 250 123.546875 248.621094 119.980469 246.609375 C 103.546875 237.070312 97.914062 216.09375 107.339844 199.660156 C 116.878906 183.222656 137.96875 177.59375 154.289062 187.015625 C 170.726562 196.5 176.355469 217.53125 166.933594 233.964844 C 166.011719 235.691406 164.863281 237.183594 163.714844 238.679688 C 216.296875 334.300781 373.175781 303.210938 292.839844 168.109375 C 293.53125 163.054688 293.929688 158.054688 294.046875 152.996094 Z M 294.046875 152.996094 " fill-opacity="1" fill-rule="nonzero"/><path fill="#c9fa75" d="M 179.058594 318.210938 C -8.167969 351.945312 6.660156 110.816406 175.953125 128.285156 C 178.539062 125.296875 181.472656 122.769531 185.089844 120.699219 C 201.527344 111.160156 222.617188 116.792969 232.039062 133.226562 C 241.582031 149.664062 235.949219 170.753906 219.511719 180.179688 C 203.078125 189.71875 181.988281 184.027344 172.5625 167.648438 C 171.527344 165.925781 170.78125 164.257812 170.09375 162.476562 C 60.964844 160.179688 9.476562 311.660156 166.585938 309.589844 C 170.609375 312.695312 174.691406 315.566406 179.058594 318.210938 Z M 179.058594 318.210938 " fill-opacity="1" fill-rule="nonzero"/></svg>