<svg xmlns="http://www.w3.org/2000/svg" xmlns:xlink="http://www.w3.org/1999/xlink" width="500" zoomAndPan="magnify" viewBox="0 0 375 374.999991" height="500" preserveAspectRatio="xMidYMid meet" version="1.2"><g id="21a4522f55"><path style=" stroke:none;fill-rule:nonzero;fill:#c9fa75;fill-opacity:1;" d="M 88.1875 146.773438 C 145.898438 -13.703125 326.300781 105.84375 236.875 229.40625 C 238.109375 232.703125 238.726562 236.304688 238.726562 239.960938 C 238.726562 257.003906 224.980469 270.75 207.9375 270.75 C 190.898438 270.75 177.152344 257.003906 177.152344 239.960938 C 177.152344 222.917969 190.898438 209.171875 207.9375 209.171875 C 209.691406 209.171875 211.386719 209.226562 213.035156 209.535156 C 263.644531 125.921875 169.273438 18.164062 100.4375 140.957031 C 96.269531 142.65625 92.148438 144.558594 88.1875 146.773438 Z M 88.1875 146.773438 "/><path style=" stroke:none;fill-rule:nonzero;fill:#c9fa75;fill-opacity:1;" d="M 267.816406 161.960938 C 377.941406 292.167969 184.152344 388.699219 121.855469 249.484375 C 118.40625 248.867188 115.0625 247.632812 111.867188 245.832031 C 97.144531 237.285156 92.097656 218.492188 100.542969 203.765625 C 109.089844 189.042969 127.984375 183.996094 142.605469 192.441406 C 157.328125 200.9375 162.375 219.777344 153.933594 234.503906 C 153.109375 236.046875 152.078125 237.386719 151.046875 238.726562 C 198.15625 324.394531 338.710938 296.542969 266.734375 175.503906 C 267.351562 170.972656 267.710938 166.492188 267.816406 161.960938 Z M 267.816406 161.960938 "/><path style=" stroke:none;fill-rule:nonzero;fill:#c9fa75;fill-opacity:1;" d="M 164.796875 309.980469 C -2.941406 340.203125 10.339844 124.171875 162.015625 139.824219 C 164.332031 137.144531 166.957031 134.882812 170.199219 133.027344 C 184.925781 124.480469 203.820312 129.527344 212.265625 144.25 C 220.808594 158.976562 215.765625 177.871094 201.039062 186.3125 C 186.316406 194.859375 167.421875 189.765625 158.976562 175.089844 C 158.050781 173.546875 157.382812 172.054688 156.761719 170.457031 C 58.996094 168.398438 12.863281 304.109375 153.621094 302.257812 C 157.226562 305.039062 160.882812 307.613281 164.796875 309.980469 Z M 164.796875 309.980469 "/></g></svg>